<svg id="svg" version="1.1" width="400" height="400" viewBox="0 0 400 400" xmlns="http://www.w3.org/2000/svg" xmlns:xlink="http://www.w3.org/1999/xlink" ><g id="svgg"><path id="path0" d="M66.013 93.975 C 65.729 94.506,65.630 126.499,65.699 195.475 L 65.800 296.200 85.200 296.200 L 104.600 296.200 104.702 264.147 C 104.789 236.895,104.891 232.023,105.378 231.618 C 105.790 231.277,109.665 231.113,119.119 231.039 C 131.837 230.939,132.335 230.905,133.691 230.068 C 134.589 229.512,135.746 229.200,136.904 229.200 C 138.135 229.200,138.787 229.010,138.942 228.607 C 139.067 228.281,139.888 227.899,140.766 227.759 C 141.645 227.619,142.669 227.165,143.044 226.752 C 143.418 226.338,144.037 226.000,144.419 226.000 C 144.802 226.000,145.212 225.747,145.330 225.438 C 145.449 225.128,146.098 224.754,146.773 224.606 C 147.448 224.458,148.000 224.166,148.000 223.958 C 148.000 223.750,148.458 223.406,149.019 223.193 C 149.579 222.980,151.694 221.479,153.719 219.859 C 157.906 216.507,161.064 213.265,166.011 207.239 C 166.445 206.710,166.800 206.059,166.800 205.793 C 166.800 205.526,167.160 204.850,167.600 204.291 C 168.040 203.731,168.400 203.000,168.400 202.665 C 168.400 202.331,168.634 201.819,168.921 201.529 C 170.023 200.409,172.041 195.266,172.983 191.172 C 173.265 189.946,173.684 188.591,173.914 188.161 C 174.144 187.731,174.532 185.944,174.776 184.191 C 175.020 182.438,175.395 180.463,175.610 179.802 C 177.354 174.431,177.092 143.254,175.254 137.603 C 175.004 136.834,174.800 135.642,174.800 134.953 C 174.800 134.265,174.454 132.914,174.032 131.951 C 173.609 130.988,173.140 129.531,172.990 128.714 C 172.839 127.897,172.465 127.020,172.158 126.765 C 171.851 126.510,171.600 125.857,171.600 125.314 C 171.600 124.771,171.240 123.869,170.800 123.309 C 170.360 122.750,170.000 121.978,170.000 121.595 C 170.000 121.212,169.748 120.689,169.439 120.433 C 169.131 120.177,168.769 119.530,168.635 118.995 C 168.500 118.461,168.033 117.832,167.595 117.597 C 167.158 117.363,166.800 116.846,166.800 116.448 C 166.800 116.050,166.440 115.398,166.000 115.000 C 165.560 114.602,165.200 114.100,165.200 113.884 C 165.200 113.668,164.795 113.100,164.300 112.622 C 163.805 112.144,163.013 111.313,162.540 110.776 C 161.610 109.721,160.234 108.552,158.798 107.600 C 158.300 107.270,157.602 106.709,157.246 106.354 C 156.891 105.999,156.161 105.480,155.625 105.200 C 155.089 104.921,154.459 104.534,154.225 104.340 C 153.195 103.488,150.727 102.000,150.345 102.000 C 150.115 102.000,149.469 101.640,148.909 101.200 C 148.350 100.760,147.578 100.400,147.195 100.400 C 146.812 100.400,146.293 100.152,146.041 99.850 C 145.790 99.547,144.892 99.189,144.044 99.053 C 143.197 98.918,142.297 98.558,142.045 98.254 C 141.793 97.950,140.695 97.583,139.606 97.439 C 138.517 97.294,137.485 96.937,137.313 96.644 C 137.124 96.323,135.922 96.028,134.281 95.901 C 132.737 95.780,131.267 95.433,130.881 95.098 C 130.384 94.666,128.685 94.440,124.600 94.260 C 121.520 94.124,118.371 93.830,117.603 93.607 C 114.618 92.738,66.491 93.082,66.013 93.975 M195.442 105.180 C 193.949 105.387,192.951 105.744,192.722 106.153 C 192.523 106.509,192.033 106.800,191.634 106.800 C 191.235 106.800,190.450 107.160,189.891 107.600 C 189.331 108.040,188.660 108.400,188.399 108.400 C 187.643 108.400,183.200 112.866,183.200 113.626 C 183.200 114.005,182.947 114.412,182.638 114.530 C 182.328 114.649,181.954 115.297,181.806 115.971 C 181.659 116.644,181.237 117.364,180.869 117.569 C 179.840 118.145,179.868 131.148,180.900 132.289 C 181.285 132.715,181.600 133.430,181.600 133.878 C 181.600 134.326,181.935 135.121,182.345 135.646 C 182.755 136.171,183.217 137.005,183.372 137.500 C 183.527 137.995,183.846 138.400,184.081 138.400 C 184.316 138.400,184.930 138.805,185.444 139.300 C 187.155 140.945,187.823 141.430,189.117 141.966 C 189.823 142.258,190.400 142.655,190.400 142.849 C 190.400 143.042,190.736 143.200,191.146 143.200 C 191.556 143.200,192.350 143.560,192.909 144.000 C 193.870 144.756,194.532 144.800,204.901 144.800 C 215.368 144.800,215.910 144.763,216.600 144.000 C 216.998 143.560,217.796 143.200,218.373 143.200 C 218.950 143.200,219.730 142.840,220.107 142.400 C 220.484 141.960,221.064 141.600,221.396 141.600 C 221.728 141.600,222.000 141.442,222.000 141.249 C 222.000 141.055,222.495 140.691,223.100 140.439 C 223.705 140.186,224.830 139.093,225.600 138.009 C 226.370 136.925,227.135 136.029,227.300 136.019 C 227.465 136.008,227.601 135.685,227.601 135.300 C 227.602 134.915,227.992 133.970,228.467 133.200 C 229.614 131.343,229.815 118.556,228.718 117.313 C 228.372 116.921,227.965 116.015,227.813 115.300 C 227.661 114.585,227.373 114.000,227.174 114.000 C 226.974 114.000,226.548 113.415,226.227 112.700 C 225.398 110.857,222.819 108.400,221.712 108.400 C 221.536 108.400,221.168 108.040,220.893 107.600 C 220.618 107.160,220.027 106.800,219.580 106.800 C 219.133 106.800,218.240 106.410,217.595 105.933 C 216.302 104.977,200.725 104.447,195.442 105.180 M111.411 122.140 C 111.845 122.438,113.100 122.799,114.200 122.943 C 115.300 123.087,116.380 123.444,116.600 123.736 C 116.820 124.028,117.490 124.390,118.090 124.539 C 119.230 124.823,121.477 126.219,122.600 127.342 C 122.961 127.704,123.424 128.000,123.629 128.000 C 123.833 128.000,124.000 128.270,124.000 128.600 C 124.000 128.930,124.258 129.200,124.573 129.200 C 124.888 129.200,125.260 129.560,125.400 130.000 C 125.540 130.440,125.791 130.800,125.960 130.800 C 126.403 130.800,128.800 134.604,128.800 135.307 C 128.800 135.634,129.072 136.127,129.404 136.403 C 129.736 136.678,130.118 137.597,130.253 138.444 C 130.389 139.292,130.739 140.183,131.030 140.425 C 131.322 140.667,131.686 141.700,131.839 142.720 C 131.992 143.740,132.334 144.792,132.600 145.057 C 132.866 145.323,133.208 146.761,133.361 148.253 C 133.514 149.745,133.855 151.225,134.120 151.543 C 134.916 152.501,135.027 169.663,134.246 171.227 C 133.912 171.898,133.517 174.011,133.368 175.923 C 133.220 177.836,132.868 179.670,132.587 180.000 C 132.305 180.330,131.946 181.829,131.788 183.332 C 131.614 184.976,131.293 186.143,130.980 186.263 C 130.694 186.373,130.342 187.158,130.199 188.008 C 130.055 188.858,129.682 189.766,129.369 190.026 C 129.056 190.286,128.800 190.812,128.800 191.195 C 128.800 191.578,128.440 192.350,128.000 192.909 C 127.560 193.469,127.200 194.101,127.200 194.315 C 127.200 195.050,123.339 198.750,122.299 199.011 C 121.727 199.155,121.161 199.526,121.041 199.836 C 120.922 200.146,120.526 200.400,120.160 200.400 C 119.794 200.400,118.933 200.737,118.247 201.148 C 117.561 201.560,116.133 202.008,115.073 202.144 C 114.014 202.281,112.759 202.664,112.284 202.996 C 111.219 203.743,105.995 203.835,105.280 203.120 C 104.570 202.410,104.586 123.532,105.296 122.395 C 105.901 121.427,110.113 121.251,111.411 122.140 M278.400 172.356 C 276.417 172.519,274.500 172.918,273.800 173.315 C 273.140 173.689,271.998 173.996,271.263 173.998 C 270.528 173.999,269.469 174.360,268.909 174.800 C 268.350 175.240,267.540 175.600,267.109 175.600 C 266.679 175.600,265.869 175.960,265.309 176.400 C 264.750 176.840,264.000 177.200,263.642 177.200 C 263.285 177.200,262.768 177.560,262.493 178.000 C 262.218 178.440,261.672 178.800,261.279 178.800 C 260.669 178.800,259.121 179.998,256.366 182.601 C 256.018 182.931,255.566 183.200,255.363 183.200 C 255.160 183.200,254.365 183.937,253.597 184.837 C 252.828 185.737,251.795 186.883,251.300 187.383 C 250.805 187.883,250.400 188.487,250.400 188.726 C 250.400 188.965,250.157 189.304,249.860 189.480 C 249.331 189.794,248.633 190.937,247.420 193.473 C 247.086 194.173,246.653 194.844,246.459 194.964 C 246.264 195.084,245.993 195.883,245.856 196.739 C 245.719 197.595,245.358 198.503,245.054 198.755 C 244.751 199.007,244.380 200.286,244.232 201.597 C 244.078 202.961,243.681 204.262,243.304 204.638 C 242.312 205.631,242.304 228.089,243.296 229.600 C 243.657 230.150,244.076 231.590,244.228 232.800 C 244.379 234.010,244.736 235.270,245.021 235.600 C 245.305 235.930,245.671 236.735,245.834 237.388 C 246.198 238.843,247.577 241.286,248.281 241.720 C 248.567 241.896,248.800 242.223,248.800 242.447 C 248.800 242.900,250.579 245.409,251.685 246.516 C 252.078 246.909,252.400 247.404,252.400 247.616 C 252.400 247.827,252.670 248.000,253.000 248.000 C 253.330 248.000,253.600 248.171,253.600 248.381 C 253.600 248.877,257.523 252.800,258.019 252.800 C 258.229 252.800,258.400 252.972,258.400 253.182 C 258.400 253.735,259.982 255.221,262.024 256.587 C 264.012 257.916,264.295 258.145,266.707 260.373 C 267.646 261.241,268.797 262.072,269.266 262.221 C 269.735 262.370,270.727 263.101,271.472 263.846 C 272.217 264.591,272.994 265.200,273.199 265.200 C 273.404 265.200,273.765 265.560,274.000 266.000 C 274.235 266.440,274.618 266.800,274.851 266.800 C 276.349 266.800,289.600 280.163,289.600 281.674 C 289.600 281.976,289.960 282.530,290.400 282.907 C 290.840 283.284,291.200 283.916,291.200 284.312 C 291.200 284.707,291.560 285.737,292.000 286.600 C 292.532 287.643,292.804 288.980,292.813 290.585 C 292.821 292.071,293.051 293.299,293.413 293.776 C 293.736 294.204,294.000 294.970,294.000 295.481 L 294.000 296.409 310.900 296.304 L 327.800 296.200 327.908 293.000 C 328.127 286.486,326.926 277.827,325.383 274.800 C 325.103 274.250,324.749 273.137,324.597 272.328 C 324.446 271.518,324.086 270.765,323.798 270.655 C 323.511 270.544,323.162 269.936,323.022 269.302 C 322.883 268.669,321.646 266.874,320.273 265.313 C 318.899 263.752,317.511 261.979,317.188 261.372 C 316.573 260.218,312.078 255.602,309.230 253.200 C 308.317 252.430,306.632 250.928,305.485 249.862 C 304.338 248.795,302.905 247.666,302.300 247.351 C 301.695 247.037,301.200 246.604,301.200 246.390 C 301.200 246.175,301.008 246.000,300.773 246.000 C 300.538 246.000,299.352 245.190,298.136 244.200 C 296.921 243.210,295.673 242.400,295.363 242.400 C 295.053 242.400,294.800 242.232,294.800 242.027 C 294.800 241.822,294.485 241.551,294.100 241.425 C 293.715 241.299,292.671 240.521,291.781 239.698 C 290.890 238.874,289.360 237.667,288.381 237.016 C 287.401 236.365,286.060 235.319,285.400 234.693 C 277.562 227.258,278.113 227.908,275.947 223.529 C 273.860 219.309,273.521 210.336,275.396 208.956 C 275.728 208.712,276.000 208.316,276.000 208.077 C 276.000 207.837,276.440 207.166,276.978 206.586 C 277.516 206.005,278.011 205.399,278.078 205.240 C 278.338 204.620,283.637 201.200,284.337 201.200 C 284.744 201.200,285.493 200.840,286.000 200.400 C 286.827 199.683,287.497 199.600,292.463 199.600 C 297.239 199.600,298.209 199.710,299.496 200.400 C 300.316 200.840,301.554 201.200,302.245 201.200 C 302.936 201.200,303.722 201.465,303.991 201.789 C 304.260 202.114,305.137 202.496,305.940 202.640 C 306.743 202.784,307.670 203.124,308.000 203.397 C 308.330 203.670,309.129 204.019,309.775 204.173 C 310.422 204.327,311.148 204.722,311.388 205.052 C 311.719 205.504,312.800 205.668,315.813 205.725 L 319.800 205.800 319.905 192.284 C 320.016 178.055,319.922 177.200,318.248 177.200 C 317.740 177.200,316.998 176.840,316.600 176.400 C 316.151 175.904,315.368 175.600,314.538 175.600 C 313.764 175.600,312.884 175.284,312.452 174.852 C 311.939 174.339,310.937 174.048,309.267 173.927 C 307.764 173.819,306.548 173.496,306.093 173.084 C 305.263 172.333,285.127 171.803,278.400 172.356 M184.899 235.900 L 185.000 296.200 204.700 296.304 L 224.400 296.408 224.400 236.004 L 224.400 175.600 204.599 175.600 L 184.797 175.600 184.899 235.900 " stroke="none" fill="#ffffff" fill-rule="evenodd"></path><path id="path1" d="M0.000 200.000 L 0.000 400.000 200.000 400.000 L 400.000 400.000 400.000 200.000 L 400.000 0.000 200.000 0.000 L 0.000 0.000 0.000 200.000 M125.400 92.699 C 126.060 92.967,127.998 93.296,129.706 93.428 C 131.415 93.561,133.036 93.894,133.311 94.168 C 133.585 94.442,134.775 94.780,135.955 94.920 C 137.135 95.060,138.483 95.422,138.951 95.724 C 139.418 96.026,140.497 96.384,141.350 96.519 C 142.202 96.655,143.192 97.021,143.550 97.332 C 143.907 97.644,144.884 98.021,145.721 98.171 C 146.558 98.321,147.342 98.704,147.464 99.022 C 147.586 99.340,147.963 99.600,148.303 99.600 C 149.056 99.600,153.200 101.661,153.200 102.036 C 153.200 102.184,154.215 102.818,155.455 103.445 C 156.695 104.073,157.908 104.904,158.151 105.293 C 158.394 105.682,158.825 106.000,159.109 106.000 C 159.393 106.000,159.729 106.270,159.855 106.600 C 159.982 106.930,160.300 107.200,160.561 107.200 C 161.417 107.200,166.394 112.534,167.269 114.389 C 167.738 115.385,168.635 116.618,169.261 117.129 C 169.888 117.640,170.400 118.320,170.400 118.639 C 170.400 118.959,171.210 120.931,172.200 123.021 C 173.190 125.112,174.000 127.245,174.000 127.762 C 174.000 128.279,174.250 128.909,174.555 129.162 C 174.861 129.417,175.236 130.827,175.392 132.311 C 175.548 133.790,175.934 135.291,176.251 135.646 C 176.633 136.075,176.908 137.690,177.068 140.446 C 177.200 142.731,177.509 144.853,177.754 145.161 C 178.379 145.948,178.379 172.851,177.755 173.639 C 177.510 173.947,177.196 176.137,177.058 178.504 C 176.920 180.872,176.556 183.409,176.249 184.143 C 175.943 184.877,175.560 186.450,175.399 187.639 C 175.238 188.828,174.882 190.250,174.608 190.800 C 174.334 191.350,174.011 192.579,173.889 193.531 C 173.767 194.483,173.383 195.577,173.034 195.963 C 172.685 196.348,172.400 197.030,172.400 197.478 C 172.400 197.926,172.040 198.750,171.600 199.309 C 171.160 199.869,170.800 200.629,170.800 201.000 C 170.800 201.371,170.440 202.131,170.000 202.691 C 169.560 203.250,169.200 203.945,169.200 204.234 C 169.200 204.864,167.288 207.757,165.839 209.321 C 165.267 209.937,164.800 210.569,164.800 210.725 C 164.800 211.708,153.656 222.400,152.631 222.400 C 152.504 222.400,152.061 222.715,151.647 223.100 C 150.346 224.311,149.054 225.200,148.596 225.200 C 148.354 225.200,147.545 225.650,146.800 226.200 C 146.055 226.750,145.139 227.200,144.765 227.200 C 144.391 227.200,143.988 227.453,143.870 227.762 C 143.751 228.072,143.057 228.455,142.327 228.613 C 141.597 228.772,140.645 229.149,140.211 229.451 C 139.777 229.753,139.054 230.000,138.605 230.000 C 138.156 230.000,137.116 230.360,136.296 230.800 C 135.475 231.240,134.152 231.600,133.356 231.600 C 132.560 231.600,130.361 231.974,128.469 232.432 C 125.395 233.175,124.056 233.249,115.918 233.132 C 108.608 233.026,106.768 233.105,106.604 233.533 C 106.492 233.826,106.400 248.161,106.400 265.390 C 106.400 293.585,106.337 296.739,105.767 296.957 C 104.469 297.455,64.589 297.229,64.080 296.720 C 63.370 296.010,63.382 93.178,64.092 92.468 C 64.797 91.763,123.644 91.984,125.400 92.699 M214.459 103.482 C 214.779 103.748,215.841 104.087,216.820 104.236 C 217.799 104.385,218.870 104.729,219.200 105.001 C 219.530 105.273,220.038 105.568,220.329 105.657 C 221.461 106.004,226.351 109.854,226.860 110.800 C 227.156 111.350,227.506 111.890,227.637 112.000 C 230.816 114.673,232.068 131.081,229.349 134.442 C 229.101 134.749,228.763 135.450,228.598 136.000 C 228.433 136.550,228.052 137.270,227.752 137.600 C 225.095 140.514,223.215 142.202,222.111 142.663 C 221.390 142.964,220.800 143.374,220.800 143.574 C 220.800 143.773,220.215 144.061,219.500 144.213 C 218.785 144.365,217.926 144.730,217.590 145.025 C 215.012 147.291,193.807 147.080,190.857 144.759 C 190.326 144.341,189.679 144.000,189.418 144.000 C 188.111 144.000,180.800 137.386,180.800 136.204 C 180.800 135.925,180.544 135.486,180.231 135.226 C 179.918 134.966,179.545 133.999,179.402 133.077 C 179.259 132.155,178.873 130.808,178.545 130.084 C 177.386 127.531,178.475 117.379,180.141 115.200 C 180.394 114.870,180.847 114.150,181.149 113.600 C 182.201 111.685,184.205 109.218,184.900 108.983 C 185.285 108.853,185.600 108.581,185.600 108.378 C 185.600 108.176,186.185 107.740,186.900 107.409 C 187.615 107.078,189.100 106.277,190.200 105.630 C 191.300 104.983,192.740 104.435,193.400 104.413 C 194.060 104.391,195.320 104.018,196.200 103.584 C 198.121 102.638,213.341 102.553,214.459 103.482 M106.864 123.722 C 106.324 124.373,106.358 201.691,106.898 202.232 C 107.062 202.396,107.677 202.311,108.264 202.044 C 108.850 201.776,110.516 201.456,111.965 201.331 C 113.414 201.207,114.963 200.880,115.406 200.605 C 115.849 200.330,116.782 199.980,117.478 199.827 C 118.175 199.674,118.959 199.290,119.221 198.974 C 119.483 198.658,119.910 198.400,120.170 198.400 C 121.504 198.400,124.785 195.401,125.848 193.210 C 126.219 192.445,126.765 191.578,127.062 191.281 C 127.358 190.985,127.601 190.441,127.601 190.071 C 127.602 189.702,127.960 188.814,128.397 188.097 C 128.834 187.381,129.311 186.031,129.458 185.097 C 129.605 184.164,129.946 183.040,130.217 182.600 C 130.487 182.160,130.829 180.810,130.977 179.600 C 131.125 178.390,131.485 176.680,131.777 175.800 C 133.390 170.949,133.388 151.118,131.775 148.600 C 131.493 148.160,131.133 146.900,130.974 145.800 C 130.816 144.700,130.352 143.173,129.943 142.406 C 129.534 141.639,129.200 140.646,129.200 140.198 C 129.200 139.750,128.663 138.398,128.007 137.192 C 127.350 135.986,126.640 134.608,126.428 134.129 C 125.145 131.233,119.249 126.021,116.486 125.341 C 115.889 125.194,115.040 124.853,114.600 124.584 C 114.160 124.315,112.728 123.977,111.417 123.834 C 110.106 123.691,108.653 123.478,108.187 123.361 C 107.706 123.240,107.135 123.396,106.864 123.722 M302.164 170.968 C 303.244 171.316,304.954 171.601,305.964 171.603 C 307.123 171.604,308.242 171.898,309.000 172.400 C 309.660 172.837,310.853 173.196,311.651 173.197 C 312.449 173.199,313.322 173.465,313.591 173.789 C 313.860 174.114,314.737 174.496,315.540 174.640 C 316.343 174.784,317.270 175.135,317.600 175.420 C 317.930 175.704,318.708 176.065,319.329 176.220 C 319.971 176.380,320.608 176.894,320.804 177.412 C 320.995 177.913,321.342 178.440,321.575 178.585 C 322.330 179.051,322.144 204.962,321.375 206.448 L 320.751 207.656 317.275 207.481 C 313.201 207.276,310.648 206.742,309.689 205.896 C 309.310 205.562,308.427 205.167,307.728 205.019 C 307.028 204.870,306.241 204.490,305.979 204.174 C 305.717 203.858,305.050 203.600,304.498 203.600 C 303.946 203.600,302.933 203.263,302.247 202.852 C 301.561 202.440,300.133 201.992,299.073 201.856 C 298.014 201.719,296.759 201.336,296.284 201.004 C 294.952 200.071,289.989 200.190,288.104 201.200 C 287.284 201.640,286.278 202.000,285.869 202.000 C 285.460 202.000,284.669 202.360,284.109 202.800 C 283.550 203.240,282.849 203.600,282.551 203.600 C 282.088 203.600,278.484 207.053,276.327 209.563 C 274.467 211.727,275.474 221.416,277.831 224.031 C 278.144 224.379,278.400 224.925,278.400 225.244 C 278.400 226.096,285.505 233.145,288.219 234.987 C 289.862 236.102,293.074 238.748,293.941 239.700 C 294.291 240.085,294.813 240.400,295.101 240.400 C 295.389 240.400,295.729 240.670,295.855 241.000 C 295.982 241.330,296.313 241.600,296.591 241.600 C 296.868 241.600,298.000 242.320,299.105 243.200 C 300.210 244.080,301.249 244.800,301.414 244.800 C 301.708 244.800,305.371 247.781,307.051 249.387 C 307.519 249.834,308.595 250.740,309.443 251.400 C 312.048 253.427,317.964 259.578,319.254 261.600 C 319.605 262.150,320.715 263.514,321.721 264.631 C 322.727 265.748,323.679 267.188,323.836 267.831 C 323.993 268.474,324.455 269.429,324.861 269.954 C 325.267 270.479,325.600 271.274,325.600 271.722 C 325.600 272.170,325.885 272.852,326.234 273.237 C 326.583 273.623,326.972 274.714,327.099 275.663 C 327.226 276.611,327.571 277.628,327.865 277.922 C 328.159 278.217,328.416 278.849,328.435 279.329 C 328.454 279.808,328.647 281.820,328.864 283.800 C 329.615 290.663,329.706 296.214,329.077 296.736 C 328.654 297.087,323.853 297.182,310.354 297.104 L 292.200 297.000 291.739 293.600 C 290.484 284.349,286.083 277.683,275.611 269.178 C 274.408 268.200,273.148 267.164,272.811 266.876 C 272.475 266.589,271.030 265.446,269.600 264.338 C 268.170 263.229,266.910 262.200,266.800 262.050 C 266.690 261.900,266.210 261.603,265.734 261.389 C 264.927 261.026,262.474 259.113,260.749 257.500 C 260.337 257.115,259.832 256.800,259.627 256.800 C 259.422 256.800,259.149 256.485,259.020 256.100 C 258.892 255.715,258.070 254.871,257.194 254.224 C 256.317 253.576,254.295 251.611,252.700 249.856 C 251.105 248.101,249.530 246.374,249.200 246.019 C 247.834 244.547,245.149 240.244,244.937 239.187 C 244.812 238.562,244.486 237.965,244.212 237.860 C 243.938 237.755,243.594 236.920,243.447 236.006 C 243.301 235.092,242.934 233.951,242.631 233.472 C 242.328 232.992,241.884 231.070,241.645 229.200 C 241.406 227.330,241.039 224.900,240.829 223.800 C 240.338 221.222,240.347 213.634,240.845 210.800 C 241.058 209.590,241.410 207.097,241.627 205.259 C 241.844 203.421,242.265 201.441,242.563 200.859 C 242.860 200.277,243.238 199.170,243.403 198.400 C 243.568 197.630,243.949 196.645,244.251 196.211 C 244.553 195.777,244.800 195.115,244.800 194.740 C 244.800 194.364,245.057 193.801,245.370 193.487 C 245.684 193.173,246.214 192.262,246.548 191.462 C 246.883 190.662,247.615 189.549,248.176 188.987 C 248.737 188.426,249.449 187.480,249.757 186.883 C 250.889 184.695,258.406 178.000,259.732 178.000 C 260.031 178.000,260.598 177.645,260.991 177.210 C 261.384 176.776,262.078 176.302,262.534 176.157 C 262.990 176.013,263.609 175.648,263.910 175.347 C 264.211 175.046,264.867 174.800,265.367 174.800 C 265.868 174.800,266.666 174.463,267.142 174.051 C 267.617 173.639,268.742 173.184,269.642 173.040 C 270.543 172.896,271.544 172.513,271.868 172.189 C 272.196 171.861,273.198 171.597,274.129 171.593 C 275.048 171.590,277.150 171.232,278.800 170.799 C 282.685 169.778,298.828 169.895,302.164 170.968 M225.120 174.880 C 225.629 175.389,225.863 295.250,225.357 296.567 C 225.038 297.398,184.107 297.547,183.280 296.720 C 182.911 296.351,182.800 282.307,182.800 235.943 L 182.800 175.645 183.689 175.023 C 184.859 174.203,224.307 174.067,225.120 174.880 " stroke="none" fill="#0c4842" fill-rule="evenodd"></path><path id="path2" d="M64.092 92.468 C 63.382 93.178,63.370 296.010,64.080 296.720 C 64.589 297.229,104.469 297.455,105.767 296.957 C 106.337 296.739,106.400 293.585,106.400 265.390 C 106.400 248.161,106.492 233.826,106.604 233.533 C 106.768 233.105,108.608 233.026,115.918 233.132 C 124.056 233.249,125.395 233.175,128.469 232.432 C 130.361 231.974,132.560 231.600,133.356 231.600 C 134.152 231.600,135.475 231.240,136.296 230.800 C 137.116 230.360,138.156 230.000,138.605 230.000 C 139.054 230.000,139.777 229.753,140.211 229.451 C 140.645 229.149,141.597 228.772,142.327 228.613 C 143.057 228.455,143.751 228.072,143.870 227.762 C 143.988 227.453,144.391 227.200,144.765 227.200 C 145.139 227.200,146.055 226.750,146.800 226.200 C 147.545 225.650,148.354 225.200,148.596 225.200 C 149.054 225.200,150.346 224.311,151.647 223.100 C 152.061 222.715,152.504 222.400,152.631 222.400 C 153.734 222.400,164.800 211.684,164.800 210.616 C 164.800 210.399,164.260 210.813,163.600 211.536 C 162.940 212.258,162.400 212.945,162.400 213.063 C 162.400 213.505,156.119 219.325,154.200 220.660 C 153.100 221.426,151.480 222.578,150.600 223.220 C 149.720 223.861,147.891 224.937,146.536 225.609 C 145.180 226.282,143.853 227.095,143.587 227.416 C 143.320 227.737,142.804 228.000,142.440 228.000 C 142.076 228.000,141.401 228.264,140.940 228.587 C 140.479 228.910,139.314 229.299,138.351 229.450 C 137.388 229.602,135.970 230.039,135.200 230.421 C 134.430 230.803,132.356 231.226,130.591 231.360 C 128.826 231.494,126.758 231.783,125.994 232.002 C 124.084 232.550,110.048 232.514,108.451 231.958 C 105.867 231.057,106.015 229.160,105.902 264.547 L 105.800 296.600 85.881 296.704 C 72.555 296.773,65.702 296.669,65.178 296.388 C 64.341 295.940,64.098 93.768,64.934 92.933 C 65.668 92.199,120.306 92.539,123.944 93.300 C 125.783 93.685,128.072 94.000,129.029 94.000 C 129.987 94.000,131.684 94.360,132.800 94.800 C 133.916 95.240,135.413 95.600,136.126 95.600 C 136.839 95.600,137.777 95.847,138.211 96.150 C 138.645 96.452,139.764 96.828,140.698 96.985 C 141.632 97.141,142.494 97.429,142.615 97.624 C 142.735 97.819,143.591 98.180,144.517 98.426 C 145.443 98.673,146.470 99.108,146.800 99.393 C 147.130 99.678,147.973 100.033,148.672 100.181 C 149.372 100.330,150.159 100.710,150.421 101.026 C 150.683 101.342,151.139 101.600,151.433 101.600 C 151.728 101.600,152.291 101.932,152.684 102.337 C 153.078 102.743,154.210 103.501,155.200 104.023 C 156.190 104.544,157.481 105.402,158.068 105.930 C 158.655 106.457,159.375 106.799,159.668 106.691 C 160.038 106.553,159.956 106.396,159.400 106.173 C 158.960 105.997,158.391 105.563,158.136 105.210 C 157.881 104.856,156.666 104.058,155.436 103.436 C 154.206 102.814,153.200 102.184,153.200 102.036 C 153.200 101.661,149.056 99.600,148.303 99.600 C 147.963 99.600,147.586 99.340,147.464 99.022 C 147.342 98.704,146.558 98.321,145.721 98.171 C 144.884 98.021,143.907 97.644,143.550 97.332 C 143.192 97.021,142.202 96.655,141.350 96.519 C 140.497 96.384,139.418 96.026,138.951 95.724 C 138.483 95.422,137.135 95.060,135.955 94.920 C 134.775 94.780,133.585 94.442,133.311 94.168 C 133.036 93.894,131.415 93.561,129.706 93.428 C 127.998 93.296,126.060 92.967,125.400 92.699 C 123.644 91.984,64.797 91.763,64.092 92.468 M196.200 103.584 C 195.320 104.018,194.060 104.391,193.400 104.413 C 192.740 104.435,191.300 104.983,190.200 105.630 C 189.100 106.277,187.615 107.078,186.900 107.409 C 186.185 107.740,185.600 108.176,185.600 108.378 C 185.600 108.581,185.285 108.853,184.900 108.983 C 184.205 109.218,182.201 111.685,181.149 113.600 C 180.847 114.150,180.394 114.870,180.141 115.200 C 178.475 117.379,177.386 127.531,178.545 130.084 C 178.873 130.808,179.259 132.155,179.402 133.077 C 179.545 133.999,179.918 134.966,180.231 135.226 C 180.544 135.486,180.800 135.925,180.800 136.204 C 180.800 137.386,188.111 144.000,189.418 144.000 C 189.679 144.000,190.326 144.341,190.857 144.759 C 193.807 147.080,215.012 147.291,217.590 145.025 C 217.926 144.730,218.785 144.365,219.500 144.213 C 220.215 144.061,220.800 143.773,220.800 143.574 C 220.800 143.374,221.390 142.964,222.111 142.663 C 223.223 142.198,224.669 140.904,227.770 137.597 C 228.082 137.265,228.458 136.507,228.607 135.913 C 228.756 135.319,229.131 134.623,229.439 134.367 C 229.748 134.111,229.982 133.339,229.959 132.651 L 229.918 131.400 229.603 132.600 C 228.724 135.946,224.476 141.197,221.928 142.085 C 221.308 142.301,220.800 142.627,220.800 142.808 C 220.800 142.990,220.125 143.355,219.300 143.620 C 218.475 143.884,217.466 144.393,217.058 144.751 C 216.411 145.317,214.875 145.400,205.058 145.400 L 193.800 145.400 190.235 143.463 C 188.274 142.398,186.449 141.306,186.179 141.036 C 185.909 140.766,185.173 140.099,184.544 139.554 C 181.023 136.502,178.410 129.154,178.947 123.809 C 179.353 119.770,179.937 117.133,180.584 116.418 C 180.923 116.043,181.200 115.620,181.200 115.476 C 181.200 113.573,185.816 108.853,189.500 106.989 C 191.096 106.182,192.501 105.360,192.624 105.161 C 192.747 104.963,193.422 104.798,194.124 104.796 C 194.826 104.793,196.284 104.523,197.364 104.196 C 198.744 103.777,201.190 103.600,205.600 103.600 C 210.010 103.600,212.456 103.777,213.836 104.196 C 214.916 104.523,216.208 104.793,216.706 104.796 C 217.697 104.800,221.646 106.892,222.416 107.820 C 222.681 108.139,223.136 108.400,223.427 108.400 C 224.735 108.400,229.591 115.473,229.606 117.400 C 229.609 117.840,229.796 118.470,230.021 118.800 C 230.313 119.229,230.351 118.947,230.154 117.811 C 229.904 116.373,228.223 112.493,227.637 112.000 C 227.506 111.890,227.156 111.350,226.860 110.800 C 226.351 109.854,221.461 106.004,220.329 105.657 C 220.038 105.568,219.530 105.273,219.200 105.001 C 218.870 104.729,217.799 104.385,216.820 104.236 C 215.841 104.087,214.779 103.748,214.459 103.482 C 213.341 102.553,198.121 102.638,196.200 103.584 M162.827 109.764 C 164.242 111.174,165.850 113.082,166.400 114.005 C 166.950 114.928,167.866 116.249,168.436 116.941 C 169.006 117.634,170.138 119.595,170.951 121.300 C 171.765 123.005,172.509 124.400,172.605 124.400 C 172.853 124.400,172.208 122.785,171.232 120.964 C 170.774 120.111,170.400 119.107,170.400 118.735 C 170.400 118.363,169.888 117.640,169.261 117.129 C 168.635 116.618,167.738 115.385,167.269 114.389 C 166.440 112.632,161.436 107.200,160.645 107.200 C 160.430 107.200,161.411 108.354,162.827 109.764 M230.709 124.119 C 230.898 128.211,231.100 128.711,231.147 125.200 C 231.170 123.550,231.050 121.983,230.882 121.719 C 230.714 121.454,230.636 122.534,230.709 124.119 M107.400 122.293 C 106.012 122.639,106.012 122.625,106.006 163.092 L 106.000 202.785 107.010 203.038 C 107.566 203.178,108.781 203.077,109.710 202.813 C 110.640 202.550,112.525 202.101,113.900 201.816 C 115.276 201.531,116.626 201.120,116.900 200.904 C 117.175 200.687,117.926 200.384,118.568 200.230 C 119.211 200.076,120.180 199.602,120.722 199.175 C 121.264 198.749,121.924 198.400,122.189 198.400 C 122.873 198.400,126.011 195.127,126.852 193.537 C 128.118 191.143,128.337 190.647,129.742 186.992 C 130.505 185.008,131.255 182.668,131.409 181.792 C 131.563 180.917,131.932 179.390,132.230 178.400 C 135.204 168.496,134.556 152.221,130.789 142.200 C 130.376 141.100,129.924 139.724,129.786 139.143 C 129.091 136.217,125.433 130.589,122.868 128.498 C 120.201 126.324,117.852 124.800,117.168 124.800 C 116.843 124.800,116.217 124.547,115.775 124.237 C 115.333 123.928,114.078 123.546,112.986 123.388 C 111.894 123.230,110.393 122.854,109.651 122.551 C 108.909 122.248,108.279 122.021,108.251 122.046 C 108.223 122.072,107.840 122.183,107.400 122.293 M111.417 123.834 C 112.728 123.977,114.160 124.315,114.600 124.584 C 115.040 124.853,115.889 125.194,116.486 125.341 C 119.249 126.021,125.145 131.233,126.428 134.129 C 126.640 134.608,127.350 135.986,128.007 137.192 C 128.663 138.398,129.200 139.750,129.200 140.198 C 129.200 140.646,129.534 141.639,129.943 142.406 C 130.352 143.173,130.816 144.700,130.974 145.800 C 131.133 146.900,131.493 148.160,131.775 148.600 C 133.388 151.118,133.390 170.949,131.777 175.800 C 131.485 176.680,131.125 178.390,130.977 179.600 C 130.829 180.810,130.487 182.160,130.217 182.600 C 129.946 183.040,129.605 184.164,129.458 185.097 C 129.311 186.031,128.834 187.381,128.397 188.097 C 127.960 188.814,127.602 189.702,127.601 190.071 C 127.601 190.441,127.358 190.985,127.062 191.281 C 126.765 191.578,126.219 192.445,125.848 193.210 C 124.785 195.401,121.504 198.400,120.170 198.400 C 119.910 198.400,119.483 198.658,119.221 198.974 C 118.959 199.290,118.175 199.674,117.478 199.827 C 116.782 199.980,115.849 200.330,115.406 200.605 C 114.963 200.880,113.414 201.207,111.965 201.331 C 110.516 201.456,108.850 201.776,108.264 202.044 C 107.677 202.311,107.062 202.396,106.898 202.232 C 106.358 201.691,106.324 124.373,106.864 123.722 C 107.135 123.396,107.706 123.240,108.187 123.361 C 108.653 123.478,110.106 123.691,111.417 123.834 M172.820 125.000 C 172.816 125.220,173.071 126.120,173.388 127.000 C 173.845 128.268,173.966 128.393,173.968 127.600 C 173.970 127.050,173.714 126.150,173.400 125.600 C 173.086 125.050,172.825 124.780,172.820 125.000 M174.353 129.474 C 174.599 129.954,174.803 130.764,174.806 131.274 C 174.809 131.783,174.977 132.461,175.179 132.779 C 175.416 133.155,175.467 132.733,175.324 131.579 C 175.202 130.601,174.834 129.530,174.505 129.200 C 173.974 128.667,173.957 128.698,174.353 129.474 M176.284 137.252 C 176.765 141.070,177.179 142.266,176.958 139.200 C 176.839 137.550,176.589 136.043,176.402 135.852 C 176.216 135.660,176.162 136.290,176.284 137.252 M177.800 159.400 C 177.800 167.320,177.922 172.990,178.070 172.000 C 178.219 171.010,178.341 165.340,178.341 159.400 C 178.341 153.460,178.219 147.790,178.070 146.800 C 177.922 145.810,177.800 151.480,177.800 159.400 M278.800 170.799 C 277.150 171.232,275.048 171.590,274.129 171.593 C 273.198 171.597,272.196 171.861,271.868 172.189 C 271.544 172.513,270.543 172.896,269.642 173.040 C 268.742 173.184,267.617 173.639,267.142 174.051 C 266.666 174.463,265.868 174.800,265.367 174.800 C 264.867 174.800,264.211 175.046,263.910 175.347 C 263.609 175.648,262.990 176.013,262.534 176.157 C 262.078 176.302,261.384 176.776,260.991 177.210 C 260.598 177.645,260.031 178.000,259.732 178.000 C 258.406 178.000,250.889 184.695,249.757 186.883 C 249.449 187.480,248.737 188.426,248.176 188.987 C 247.615 189.549,246.883 190.662,246.548 191.462 C 246.214 192.262,245.684 193.173,245.370 193.487 C 245.057 193.801,244.800 194.364,244.800 194.740 C 244.800 195.115,244.553 195.777,244.251 196.211 C 243.949 196.645,243.568 197.630,243.403 198.400 C 243.238 199.170,242.860 200.277,242.563 200.859 C 242.265 201.441,241.844 203.421,241.627 205.259 C 241.410 207.097,241.058 209.590,240.845 210.800 C 240.347 213.634,240.338 221.222,240.829 223.800 C 241.039 224.900,241.406 227.330,241.645 229.200 C 241.884 231.070,242.328 232.992,242.631 233.472 C 242.934 233.951,243.301 235.092,243.447 236.006 C 243.594 236.920,243.938 237.755,244.212 237.860 C 244.486 237.965,244.812 238.562,244.937 239.187 C 245.149 240.244,247.834 244.547,249.200 246.019 C 249.530 246.374,251.105 248.101,252.700 249.856 C 254.295 251.611,256.317 253.576,257.194 254.224 C 258.070 254.871,258.892 255.715,259.020 256.100 C 259.149 256.485,259.422 256.800,259.627 256.800 C 259.832 256.800,260.337 257.115,260.749 257.500 C 262.474 259.113,264.927 261.026,265.734 261.389 C 266.210 261.603,266.690 261.900,266.800 262.050 C 266.910 262.200,268.170 263.229,269.600 264.338 C 271.030 265.446,272.475 266.589,272.811 266.876 C 273.148 267.164,274.408 268.200,275.611 269.178 C 286.083 277.683,290.484 284.349,291.739 293.600 L 292.200 297.000 310.354 297.104 C 323.425 297.179,328.661 297.081,329.054 296.755 C 329.466 296.414,329.579 295.207,329.514 291.851 L 329.429 287.400 329.302 291.857 C 329.182 296.070,329.126 296.326,328.287 296.551 C 326.998 296.897,293.885 296.842,293.341 296.494 C 293.088 296.332,292.678 294.490,292.429 292.400 C 291.372 283.544,286.768 277.119,274.174 266.926 C 270.004 263.550,268.451 262.400,268.063 262.400 C 267.830 262.400,267.496 262.145,267.320 261.834 C 267.144 261.523,265.470 260.123,263.600 258.724 C 259.482 255.642,248.800 245.110,248.800 244.131 C 248.800 244.025,248.080 242.933,247.200 241.704 C 246.320 240.475,245.600 239.179,245.600 238.824 C 245.600 238.469,245.362 237.823,245.071 237.389 C 240.691 230.852,240.545 206.530,244.832 197.356 C 245.254 196.452,245.600 195.428,245.600 195.080 C 245.600 194.732,245.757 194.350,245.949 194.231 C 246.141 194.113,246.789 193.012,247.389 191.786 C 247.989 190.560,248.822 189.343,249.240 189.082 C 249.658 188.821,250.000 188.459,250.000 188.277 C 250.000 187.413,255.272 181.600,256.056 181.600 C 256.197 181.600,257.184 180.880,258.249 180.000 C 259.314 179.120,260.392 178.400,260.644 178.400 C 260.896 178.400,261.311 178.148,261.567 177.839 C 261.823 177.531,263.060 176.796,264.316 176.205 C 265.572 175.614,267.266 174.786,268.079 174.365 C 268.893 173.944,269.905 173.600,270.328 173.600 C 270.752 173.600,271.886 173.262,272.849 172.848 C 273.812 172.435,276.021 171.985,277.759 171.848 C 279.496 171.712,281.144 171.413,281.420 171.183 C 282.764 170.068,305.665 171.556,308.280 172.928 C 308.984 173.298,310.071 173.600,310.696 173.600 C 311.320 173.600,312.537 173.960,313.400 174.400 C 314.263 174.840,315.359 175.200,315.836 175.200 C 316.312 175.200,316.920 175.463,317.187 175.785 C 317.454 176.106,318.061 176.487,318.536 176.630 C 321.260 177.455,321.200 177.104,321.200 192.280 L 321.200 206.020 320.174 206.410 C 317.992 207.240,313.227 206.684,310.200 205.246 C 306.359 203.423,304.877 202.799,304.356 202.787 C 304.050 202.780,303.451 202.510,303.024 202.187 C 302.596 201.864,301.917 201.600,301.514 201.600 C 301.110 201.600,299.756 201.240,298.504 200.800 C 295.561 199.766,289.435 199.683,287.260 200.649 C 281.449 203.229,278.073 205.826,276.651 208.810 C 276.287 209.574,276.216 209.850,276.494 209.423 C 277.414 208.009,282.001 203.600,282.551 203.600 C 282.849 203.600,283.550 203.240,284.109 202.800 C 284.669 202.360,285.460 202.000,285.869 202.000 C 286.278 202.000,287.284 201.640,288.104 201.200 C 289.989 200.190,294.952 200.071,296.284 201.004 C 296.759 201.336,298.014 201.719,299.073 201.856 C 300.133 201.992,301.561 202.440,302.247 202.852 C 302.933 203.263,303.946 203.600,304.498 203.600 C 305.050 203.600,305.717 203.858,305.979 204.174 C 306.241 204.490,307.028 204.870,307.728 205.019 C 308.427 205.167,309.310 205.562,309.689 205.896 C 310.648 206.742,313.201 207.276,317.275 207.481 L 320.751 207.656 321.375 206.448 C 322.144 204.962,322.330 179.051,321.575 178.585 C 321.342 178.440,320.995 177.913,320.804 177.412 C 320.608 176.894,319.971 176.380,319.329 176.220 C 318.708 176.065,317.930 175.704,317.600 175.420 C 317.270 175.135,316.343 174.784,315.540 174.640 C 314.737 174.496,313.860 174.114,313.591 173.789 C 313.322 173.465,312.449 173.199,311.651 173.197 C 310.853 173.196,309.660 172.837,309.000 172.400 C 308.242 171.898,307.123 171.604,305.964 171.603 C 304.954 171.601,303.244 171.316,302.164 170.968 C 298.828 169.895,282.685 169.778,278.800 170.799 M183.689 175.023 L 182.800 175.645 182.800 235.943 C 182.800 282.307,182.911 296.351,183.280 296.720 C 184.107 297.547,225.038 297.398,225.357 296.567 C 225.863 295.250,225.629 175.389,225.120 174.880 C 224.307 174.067,184.859 174.203,183.689 175.023 M224.752 175.343 C 225.083 175.741,225.176 191.966,225.101 236.243 L 225.000 296.600 205.400 296.711 C 194.620 296.772,185.395 296.723,184.900 296.603 L 184.000 296.385 184.000 236.012 C 184.000 178.937,184.038 175.617,184.700 175.232 C 185.865 174.554,224.185 174.660,224.752 175.343 M176.627 178.691 C 176.471 180.612,176.261 182.727,176.161 183.391 C 175.996 184.487,176.016 184.514,176.382 183.684 C 176.812 182.710,177.459 175.200,177.114 175.200 C 177.002 175.200,176.783 176.771,176.627 178.691 M174.854 188.667 C 174.825 189.144,174.696 189.864,174.570 190.267 C 174.352 190.961,174.364 190.962,174.796 190.288 C 175.047 189.897,175.175 189.177,175.081 188.688 C 174.909 187.801,174.909 187.801,174.854 188.667 M173.614 192.600 C 173.587 193.040,173.322 194.081,173.025 194.914 C 172.568 196.193,172.569 196.357,173.032 195.974 C 173.649 195.461,174.189 193.114,173.872 192.321 C 173.749 192.013,173.643 192.127,173.614 192.600 M171.998 197.300 C 171.996 197.575,171.726 198.340,171.397 199.000 L 170.799 200.200 171.599 199.256 C 172.317 198.409,172.711 196.800,172.200 196.800 C 172.090 196.800,171.999 197.025,171.998 197.300 M169.426 202.940 C 168.781 204.293,167.690 206.210,167.003 207.200 C 165.387 209.527,164.903 210.470,165.975 209.200 C 167.489 207.405,169.200 204.772,169.200 204.234 C 169.200 203.945,169.573 203.233,170.029 202.654 C 170.485 202.074,170.800 201.347,170.729 201.040 C 170.658 200.732,170.072 201.587,169.426 202.940 M274.990 212.945 C 274.842 214.125,274.880 216.060,275.073 217.245 C 275.385 219.157,275.423 218.915,275.412 215.100 C 275.398 210.186,275.359 209.987,274.990 212.945 M276.217 221.543 C 276.486 222.903,278.400 226.126,278.400 225.219 C 278.400 224.948,278.040 224.269,277.600 223.709 C 277.160 223.150,276.797 222.401,276.794 222.046 C 276.791 221.691,276.600 221.130,276.370 220.800 C 276.060 220.356,276.021 220.550,276.217 221.543 M278.400 226.281 C 278.400 226.950,284.079 232.396,288.017 235.504 C 291.494 238.248,291.752 238.460,293.721 240.206 C 294.813 241.175,296.293 241.598,295.800 240.800 C 295.664 240.580,295.333 240.400,295.065 240.400 C 294.797 240.400,294.291 240.085,293.941 239.700 C 293.074 238.748,289.862 236.102,288.219 234.987 C 286.440 233.780,285.802 233.206,281.797 229.213 C 279.929 227.350,278.400 226.031,278.400 226.281 M296.600 242.000 C 296.736 242.220,297.107 242.400,297.424 242.400 C 297.741 242.400,298.000 242.571,298.000 242.780 C 298.000 242.989,299.215 244.009,300.700 245.046 C 302.185 246.084,304.120 247.589,305.000 248.391 C 307.164 250.364,309.609 252.125,309.849 251.884 C 309.958 251.776,309.451 251.279,308.723 250.779 C 307.995 250.280,307.130 249.573,306.800 249.208 C 305.854 248.162,301.746 244.800,301.414 244.800 C 301.249 244.800,300.210 244.080,299.105 243.200 C 297.190 241.676,296.067 241.137,296.600 242.000 M310.668 252.900 C 310.802 253.175,312.171 254.570,313.710 256.000 C 315.249 257.430,316.321 258.239,316.092 257.797 C 315.320 256.307,309.981 251.487,310.668 252.900 M316.800 258.968 C 316.800 259.522,319.973 263.637,321.572 265.158 C 322.357 265.904,323.227 267.074,323.504 267.758 L 324.007 269.000 323.779 267.831 C 323.653 267.188,322.727 265.748,321.721 264.631 C 320.715 263.514,319.603 262.150,319.250 261.600 C 318.353 260.204,316.800 258.535,316.800 258.968 M324.528 269.856 C 324.708 270.127,325.008 270.855,325.193 271.474 C 325.467 272.387,325.538 272.438,325.566 271.744 C 325.585 271.274,325.285 270.545,324.900 270.125 C 324.515 269.706,324.347 269.584,324.528 269.856 M326.030 273.420 C 326.047 273.629,326.319 274.430,326.636 275.200 L 327.210 276.600 326.998 275.213 C 326.811 273.995,325.948 272.397,326.030 273.420 M327.875 279.600 C 328.009 280.810,328.270 282.160,328.455 282.600 C 328.657 283.078,328.694 282.433,328.547 281.000 C 328.413 279.680,328.152 278.330,327.967 278.000 C 327.776 277.658,327.737 278.346,327.875 279.600 " stroke="none" fill="#579fbb" fill-rule="evenodd"></path><path id="path3" d="M91.600 92.794 C 105.790 92.907,117.580 93.066,117.800 93.147 C 118.699 93.478,119.447 93.218,118.800 92.800 C 118.425 92.557,108.393 92.445,92.000 92.500 L 65.800 92.588 91.600 92.794 M121.200 93.400 C 121.754 93.717,123.180 93.961,124.400 93.947 L 126.600 93.922 124.000 93.385 C 120.630 92.690,119.965 92.694,121.200 93.400 M130.904 94.800 C 131.725 95.240,132.893 95.590,133.499 95.578 C 134.470 95.558,134.388 95.466,132.800 94.800 C 130.319 93.759,128.962 93.759,130.904 94.800 M136.000 95.867 C 136.330 95.980,137.140 96.307,137.800 96.594 C 138.460 96.881,139.573 97.236,140.272 97.384 C 140.972 97.531,141.759 97.910,142.021 98.226 C 142.283 98.542,142.943 98.800,143.487 98.800 C 144.031 98.800,144.954 99.069,145.538 99.397 C 146.122 99.726,147.050 100.185,147.600 100.418 C 148.150 100.651,149.257 101.237,150.061 101.721 C 150.864 102.204,152.682 103.268,154.100 104.085 C 155.518 104.902,156.907 105.847,157.188 106.185 C 157.468 106.523,157.903 106.800,158.153 106.800 C 158.403 106.800,158.832 107.160,159.107 107.600 C 159.382 108.040,159.792 108.400,160.018 108.400 C 160.245 108.400,161.233 109.255,162.215 110.300 C 163.196 111.345,164.270 112.485,164.600 112.834 C 164.930 113.182,165.200 113.649,165.200 113.872 C 165.200 114.094,165.560 114.602,166.000 115.000 C 166.440 115.398,166.800 115.956,166.800 116.239 C 166.800 116.523,167.147 116.998,167.572 117.295 C 167.996 117.593,168.464 118.315,168.611 118.901 C 168.758 119.488,169.131 120.177,169.439 120.433 C 169.748 120.689,170.000 121.212,170.000 121.595 C 170.000 121.978,170.360 122.750,170.800 123.309 C 171.240 123.869,171.600 124.771,171.600 125.314 C 171.600 125.857,171.858 126.516,172.172 126.777 C 172.487 127.038,172.937 128.149,173.173 129.246 C 173.408 130.343,173.870 131.762,174.200 132.400 C 174.530 133.038,174.800 134.155,174.800 134.883 C 174.800 135.610,175.006 136.834,175.258 137.603 C 177.077 143.156,177.357 175.820,175.619 179.867 C 175.415 180.344,175.043 182.224,174.794 184.044 C 174.545 185.865,174.084 187.851,173.770 188.457 C 173.457 189.064,173.196 190.064,173.191 190.680 C 173.186 191.296,172.856 192.520,172.458 193.400 C 172.059 194.280,171.603 195.540,171.443 196.200 C 171.074 197.725,169.601 200.838,168.921 201.529 C 168.634 201.819,168.400 202.394,168.400 202.805 C 168.400 203.216,168.202 203.675,167.959 203.825 C 167.717 203.975,167.257 204.724,166.937 205.490 C 166.617 206.255,166.188 207.088,165.983 207.341 C 160.588 214.000,152.924 221.240,149.200 223.195 C 148.650 223.484,148.110 223.831,148.000 223.968 C 147.890 224.105,147.350 224.446,146.800 224.727 C 146.250 225.009,145.080 225.676,144.200 226.210 C 142.048 227.516,140.902 228.000,139.961 228.000 C 139.529 228.000,139.071 228.270,138.945 228.600 C 138.818 228.930,138.278 229.200,137.744 229.200 C 137.211 229.200,136.105 229.505,135.287 229.878 C 134.469 230.251,133.440 230.683,133.000 230.838 C 132.203 231.119,132.203 231.120,133.006 231.160 C 133.449 231.182,134.439 230.867,135.206 230.461 C 135.973 230.054,137.388 229.598,138.351 229.448 C 139.314 229.297,140.479 228.910,140.940 228.587 C 141.401 228.264,142.076 228.000,142.440 228.000 C 142.804 228.000,143.320 227.737,143.587 227.416 C 143.853 227.095,145.180 226.282,146.536 225.609 C 147.891 224.937,149.720 223.861,150.600 223.220 C 151.480 222.578,153.100 221.426,154.200 220.660 C 156.124 219.321,162.400 213.505,162.400 213.061 C 162.400 212.942,163.032 212.160,163.805 211.322 C 167.250 207.589,172.467 197.928,173.405 193.542 C 173.563 192.804,173.835 192.020,174.009 191.800 C 174.183 191.580,174.537 190.230,174.797 188.800 C 175.057 187.370,175.443 185.735,175.655 185.167 C 175.868 184.599,176.303 181.989,176.623 179.367 C 176.943 176.745,177.397 173.250,177.632 171.600 C 178.761 163.656,177.542 141.410,175.582 134.200 C 175.343 133.320,174.995 131.970,174.810 131.200 C 173.872 127.302,170.214 119.131,168.427 116.941 C 167.862 116.249,166.950 114.927,166.400 114.003 C 165.282 112.127,160.092 106.800,159.382 106.800 C 159.130 106.800,158.606 106.448,158.216 106.018 C 157.827 105.588,156.584 104.757,155.454 104.171 C 154.324 103.585,153.078 102.767,152.684 102.353 C 152.291 101.939,151.728 101.600,151.433 101.600 C 151.139 101.600,150.683 101.342,150.421 101.026 C 150.159 100.710,149.372 100.330,148.672 100.181 C 147.973 100.033,147.130 99.678,146.800 99.393 C 146.470 99.108,145.443 98.673,144.517 98.426 C 143.591 98.180,142.735 97.819,142.615 97.624 C 142.494 97.429,141.632 97.141,140.698 96.985 C 139.764 96.828,138.645 96.452,138.211 96.150 C 137.777 95.847,136.967 95.614,136.411 95.632 C 135.836 95.650,135.659 95.751,136.000 95.867 M205.800 104.026 C 209.760 104.173,213.540 104.404,214.200 104.538 C 214.987 104.698,214.850 104.589,213.800 104.222 C 212.645 103.817,210.307 103.675,205.400 103.709 L 198.600 103.757 205.800 104.026 M217.020 105.233 C 217.168 105.471,218.036 105.987,218.950 106.378 C 219.864 106.770,220.856 107.385,221.155 107.745 C 221.453 108.105,221.952 108.400,222.262 108.400 C 222.571 108.400,222.929 108.670,223.055 109.000 C 223.182 109.330,223.512 109.600,223.788 109.600 C 224.310 109.600,226.400 112.347,226.400 113.033 C 226.400 113.247,226.760 113.730,227.200 114.107 C 227.640 114.484,228.000 115.185,228.000 115.665 C 228.000 116.144,228.303 116.872,228.674 117.281 C 229.814 118.541,229.648 131.287,228.467 133.200 C 227.992 133.970,227.602 134.915,227.601 135.300 C 227.601 135.685,227.465 136.008,227.300 136.019 C 227.135 136.029,226.370 136.929,225.600 138.018 C 224.830 139.107,223.886 140.100,223.502 140.225 C 223.119 140.350,222.574 140.666,222.292 140.926 C 221.083 142.042,219.199 143.185,218.140 143.443 C 216.505 143.843,214.773 145.200,215.897 145.200 C 216.340 145.200,216.917 144.942,217.179 144.626 C 217.441 144.310,218.168 143.939,218.795 143.801 C 219.421 143.664,220.337 143.202,220.828 142.775 C 221.320 142.349,221.944 142.000,222.214 142.000 C 223.161 142.000,227.585 137.181,228.557 135.091 C 231.561 128.635,231.413 119.661,228.208 113.926 C 226.945 111.665,224.112 108.400,223.415 108.400 C 223.131 108.400,222.681 108.139,222.416 107.820 C 221.337 106.519,216.333 104.120,217.020 105.233 M105.247 122.543 C 104.918 122.940,104.824 133.851,104.898 163.043 L 105.000 203.000 106.000 203.090 C 106.550 203.139,106.775 203.079,106.500 202.956 C 105.940 202.707,105.749 123.807,106.306 122.946 C 106.468 122.697,106.960 122.403,107.400 122.293 C 107.949 122.156,107.807 122.078,106.949 122.046 C 106.261 122.021,105.495 122.244,105.247 122.543 M211.305 145.487 C 211.914 145.579,212.814 145.577,213.305 145.482 C 213.797 145.387,213.300 145.311,212.200 145.314 C 211.100 145.317,210.697 145.395,211.305 145.487 M281.471 171.084 C 281.363 171.258,284.616 171.347,288.700 171.282 C 293.481 171.207,296.274 171.314,296.542 171.582 C 296.772 171.812,298.229 171.972,299.780 171.937 L 302.600 171.874 299.800 171.504 C 296.078 171.011,281.720 170.682,281.471 171.084 M305.600 172.608 C 308.871 173.582,309.456 173.638,307.800 172.815 C 306.920 172.378,305.660 172.032,305.000 172.046 C 303.939 172.069,304.009 172.134,305.600 172.608 M311.000 173.891 C 311.440 174.000,311.944 174.339,312.120 174.645 C 312.296 174.950,313.009 175.200,313.704 175.200 L 314.969 175.200 313.400 174.400 C 312.537 173.960,311.464 173.621,311.015 173.646 C 310.213 173.692,310.212 173.696,311.000 173.891 M204.700 175.100 L 224.400 175.208 224.400 235.774 C 224.400 293.113,224.363 296.352,223.700 296.545 C 223.296 296.662,223.422 296.717,224.000 296.674 L 225.000 296.600 225.101 236.243 C 225.176 191.966,225.083 175.741,224.752 175.343 C 224.382 174.897,220.794 174.817,204.651 174.896 L 185.000 174.992 204.700 175.100 M316.046 175.939 C 316.571 176.345,317.490 176.798,318.088 176.944 C 319.962 177.401,320.017 177.875,319.905 192.484 L 319.800 206.200 317.200 206.431 L 314.600 206.662 316.874 206.731 C 318.125 206.769,319.610 206.624,320.174 206.410 L 321.200 206.020 321.200 192.280 C 321.200 177.104,321.260 177.455,318.536 176.630 C 318.061 176.487,317.454 176.106,317.187 175.785 C 316.920 175.463,316.340 175.200,315.897 175.200 C 315.144 175.200,315.154 175.248,316.046 175.939 M286.000 200.600 C 285.726 200.930,285.108 201.200,284.625 201.200 C 283.797 201.200,278.339 204.550,278.078 205.218 C 278.011 205.390,277.516 206.005,276.978 206.586 C 276.440 207.166,276.000 207.883,276.000 208.178 C 276.000 208.473,275.753 208.809,275.451 208.925 C 275.143 209.043,274.681 210.312,274.395 211.824 C 273.530 216.410,274.468 220.937,277.416 226.400 C 278.122 227.709,283.374 233.200,283.919 233.200 C 284.152 233.200,284.760 233.729,285.271 234.376 C 286.094 235.418,288.910 237.600,289.432 237.600 C 289.541 237.600,290.474 238.410,291.508 239.400 C 292.541 240.390,293.614 241.200,293.893 241.200 C 294.172 241.200,294.715 241.481,295.100 241.824 C 296.506 243.077,299.923 245.600,300.214 245.600 C 300.532 245.600,304.149 248.589,306.263 250.599 C 308.433 252.661,310.792 254.585,311.612 254.961 C 312.045 255.160,312.400 255.467,312.400 255.643 C 312.400 255.820,313.390 256.978,314.600 258.218 C 315.810 259.457,316.800 260.590,316.801 260.735 C 316.801 260.881,318.146 262.620,319.790 264.600 C 321.433 266.580,322.890 268.707,323.027 269.327 C 323.164 269.947,323.511 270.544,323.798 270.655 C 324.086 270.765,324.446 271.518,324.597 272.328 C 324.749 273.137,325.103 274.250,325.383 274.800 C 326.958 277.889,328.131 286.335,327.916 293.037 C 327.811 296.336,327.865 296.658,328.500 296.491 C 330.090 296.073,328.948 281.909,326.831 275.800 C 325.890 273.084,325.714 272.661,324.252 269.594 C 323.673 268.381,323.200 267.228,323.200 267.033 C 323.200 266.837,322.508 266.030,321.662 265.239 C 320.816 264.447,319.125 262.450,317.903 260.800 C 315.567 257.646,310.905 252.935,308.200 250.997 C 307.320 250.366,305.880 249.193,305.000 248.391 C 304.120 247.589,302.185 246.084,300.700 245.046 C 299.215 244.009,298.000 243.010,298.000 242.826 C 298.000 242.643,297.685 242.377,297.300 242.236 C 296.177 241.823,294.170 240.650,293.472 240.000 C 292.343 238.948,291.511 238.261,288.017 235.495 C 282.987 231.513,279.202 227.740,278.137 225.647 C 277.620 224.631,277.028 223.530,276.822 223.200 C 273.447 217.808,274.556 210.165,279.405 205.400 C 281.235 203.602,282.616 202.762,287.200 200.660 C 288.524 200.053,288.543 200.018,287.549 200.009 C 286.971 200.004,286.274 200.270,286.000 200.600 M127.600 231.287 C 126.610 231.499,122.020 231.802,117.400 231.959 L 109.000 232.244 116.669 232.322 C 120.888 232.365,125.208 232.220,126.269 231.999 C 127.331 231.779,129.010 231.438,130.000 231.242 C 131.301 230.984,131.467 230.888,130.600 230.893 C 129.940 230.897,128.590 231.074,127.600 231.287 M105.500 231.632 C 104.843 232.015,104.800 233.981,104.800 263.940 C 104.800 288.919,104.692 295.951,104.300 296.354 C 103.896 296.769,103.992 296.842,104.800 296.734 L 105.800 296.600 105.896 264.600 L 105.992 232.600 106.840 231.900 C 107.839 231.076,106.809 230.870,105.500 231.632 " stroke="none" fill="#deae6e" fill-rule="evenodd"></path><path id="path4" d="M64.650 94.050 C 63.885 97.876,64.398 295.971,65.174 296.386 C 65.683 296.659,72.475 296.768,85.074 296.706 L 104.200 296.612 85.000 296.406 L 65.800 296.200 65.699 195.475 C 65.629 125.574,65.727 94.510,66.019 93.964 C 66.432 93.193,66.939 93.180,92.182 93.289 C 106.340 93.350,117.716 93.268,117.462 93.106 C 117.208 92.944,105.278 92.809,90.950 92.806 L 64.900 92.800 64.650 94.050 M118.900 93.065 C 117.781 93.516,118.516 93.999,120.300 93.986 C 122.149 93.972,122.173 93.956,121.200 93.400 C 120.147 92.798,119.717 92.735,118.900 93.065 M124.100 94.294 C 125.145 94.376,126.855 94.376,127.900 94.294 C 128.945 94.212,128.090 94.144,126.000 94.144 C 123.910 94.144,123.055 94.212,124.100 94.294 M133.505 95.883 C 134.002 95.979,134.722 95.975,135.105 95.875 C 135.487 95.775,135.080 95.696,134.200 95.701 C 133.320 95.705,133.007 95.787,133.505 95.883 M196.600 104.388 C 196.160 104.584,195.348 104.756,194.796 104.772 C 190.920 104.880,181.200 112.533,181.200 115.476 C 181.200 115.620,180.923 116.043,180.584 116.418 C 179.937 117.133,179.353 119.770,178.947 123.809 C 178.410 129.154,181.023 136.502,184.544 139.554 C 185.173 140.099,185.909 140.766,186.179 141.036 C 186.449 141.306,188.263 142.367,190.210 143.394 L 193.751 145.262 200.975 145.460 C 204.949 145.569,209.820 145.489,211.800 145.283 C 214.879 144.962,213.847 144.900,204.663 144.854 C 194.577 144.803,193.865 144.752,192.909 144.000 C 192.350 143.560,191.556 143.200,191.146 143.200 C 190.736 143.200,190.400 143.042,190.400 142.849 C 190.400 142.655,189.823 142.258,189.117 141.966 C 187.823 141.430,187.155 140.945,185.444 139.300 C 184.930 138.805,184.316 138.400,184.081 138.400 C 183.846 138.400,183.527 137.995,183.372 137.500 C 183.217 137.005,182.755 136.171,182.345 135.646 C 181.935 135.121,181.600 134.326,181.600 133.878 C 181.600 133.430,181.285 132.715,180.900 132.289 C 179.868 131.148,179.840 118.145,180.869 117.569 C 181.237 117.364,181.659 116.644,181.806 115.971 C 181.954 115.297,182.328 114.649,182.638 114.530 C 182.947 114.412,183.200 114.005,183.200 113.626 C 183.200 112.866,187.643 108.400,188.399 108.400 C 188.660 108.400,189.331 108.040,189.891 107.600 C 190.450 107.160,191.235 106.800,191.634 106.800 C 192.033 106.800,192.519 106.516,192.713 106.170 C 193.391 104.958,207.055 104.314,214.501 105.141 C 217.457 105.470,217.692 105.050,214.800 104.605 C 211.953 104.167,197.485 103.995,196.600 104.388 M107.200 121.991 C 108.190 122.147,109.507 122.483,110.126 122.738 C 110.745 122.992,111.828 123.200,112.532 123.200 C 113.236 123.200,114.484 123.560,115.304 124.000 C 116.125 124.440,117.013 124.800,117.277 124.800 C 117.862 124.800,120.350 126.446,122.868 128.498 C 125.433 130.589,129.091 136.217,129.786 139.143 C 129.924 139.724,130.376 141.100,130.789 142.200 C 134.556 152.221,135.204 168.496,132.230 178.400 C 131.932 179.390,131.563 180.917,131.409 181.792 C 131.255 182.668,130.505 185.008,129.742 186.992 C 128.337 190.647,128.118 191.143,126.852 193.537 C 126.011 195.127,122.873 198.400,122.189 198.400 C 121.924 198.400,121.279 198.735,120.754 199.145 C 120.229 199.555,119.350 200.017,118.800 200.172 C 118.250 200.328,117.260 200.691,116.600 200.980 C 115.191 201.596,108.818 203.124,106.800 203.330 C 106.030 203.408,106.755 203.501,108.411 203.536 C 110.535 203.581,111.676 203.422,112.284 202.996 C 112.759 202.664,114.014 202.281,115.073 202.144 C 116.133 202.008,117.561 201.560,118.247 201.148 C 118.933 200.737,119.794 200.400,120.160 200.400 C 120.526 200.400,120.922 200.146,121.041 199.836 C 121.161 199.526,121.727 199.155,122.299 199.011 C 123.339 198.750,127.200 195.050,127.200 194.315 C 127.200 194.101,127.560 193.469,128.000 192.909 C 128.440 192.350,128.800 191.578,128.800 191.195 C 128.800 190.812,129.056 190.286,129.369 190.026 C 129.682 189.766,130.055 188.858,130.199 188.008 C 130.342 187.158,130.694 186.373,130.980 186.263 C 131.293 186.143,131.614 184.976,131.788 183.332 C 131.946 181.829,132.305 180.330,132.587 180.000 C 132.868 179.670,133.220 177.836,133.368 175.923 C 133.517 174.011,133.912 171.898,134.246 171.227 C 135.027 169.663,134.916 152.501,134.120 151.543 C 133.855 151.225,133.514 149.745,133.361 148.253 C 133.208 146.761,132.866 145.323,132.600 145.057 C 132.334 144.792,131.992 143.740,131.839 142.720 C 131.686 141.700,131.322 140.667,131.030 140.425 C 130.739 140.183,130.389 139.292,130.253 138.444 C 130.118 137.597,129.736 136.678,129.404 136.403 C 129.072 136.127,128.800 135.634,128.800 135.307 C 128.800 134.604,126.403 130.800,125.960 130.800 C 125.791 130.800,125.540 130.440,125.400 130.000 C 125.260 129.560,124.888 129.200,124.573 129.200 C 124.258 129.200,124.000 128.930,124.000 128.600 C 124.000 128.270,123.833 128.000,123.629 128.000 C 123.424 128.000,122.961 127.704,122.600 127.342 C 121.477 126.219,119.230 124.823,118.090 124.539 C 117.490 124.390,116.820 124.028,116.600 123.736 C 116.380 123.444,115.300 123.087,114.200 122.943 C 113.100 122.799,111.845 122.438,111.411 122.140 C 110.922 121.805,109.630 121.620,108.011 121.653 C 105.484 121.705,105.458 121.716,107.200 121.991 M277.812 171.851 C 275.619 172.148,273.252 172.664,272.552 172.996 C 271.852 173.328,270.892 173.600,270.419 173.600 C 269.946 173.600,268.893 173.944,268.079 174.365 C 267.266 174.786,265.572 175.614,264.316 176.205 C 263.060 176.796,261.823 177.531,261.567 177.839 C 261.311 178.148,260.896 178.400,260.644 178.400 C 260.392 178.400,259.314 179.120,258.249 180.000 C 257.184 180.880,256.197 181.600,256.056 181.600 C 255.272 181.600,250.000 187.413,250.000 188.277 C 250.000 188.459,249.658 188.821,249.240 189.082 C 248.822 189.343,247.989 190.560,247.389 191.786 C 246.789 193.012,246.141 194.113,245.949 194.231 C 245.757 194.350,245.600 194.732,245.600 195.080 C 245.600 195.428,245.254 196.452,244.832 197.356 C 240.545 206.530,240.691 230.852,245.071 237.389 C 245.362 237.823,245.600 238.469,245.600 238.824 C 245.600 239.179,246.320 240.475,247.200 241.704 C 248.080 242.933,248.800 244.025,248.800 244.131 C 248.800 245.110,259.482 255.642,263.600 258.724 C 265.470 260.123,267.144 261.523,267.320 261.834 C 267.496 262.145,267.830 262.400,268.063 262.400 C 268.295 262.400,269.411 263.132,270.543 264.026 C 286.543 276.669,291.285 282.817,292.429 292.400 C 292.678 294.490,293.088 296.332,293.341 296.494 C 293.947 296.882,327.498 296.888,327.738 296.500 C 327.840 296.335,320.291 296.249,310.962 296.308 L 294.000 296.417 294.000 295.485 C 294.000 294.972,293.736 294.204,293.413 293.776 C 293.051 293.299,292.821 292.071,292.813 290.585 C 292.804 288.980,292.532 287.643,292.000 286.600 C 291.560 285.737,291.200 284.707,291.200 284.312 C 291.200 283.916,290.840 283.284,290.400 282.907 C 289.960 282.530,289.600 281.976,289.600 281.674 C 289.600 280.163,276.349 266.800,274.851 266.800 C 274.618 266.800,274.235 266.440,274.000 266.000 C 273.765 265.560,273.404 265.200,273.199 265.200 C 272.994 265.200,272.217 264.591,271.472 263.846 C 270.727 263.101,269.735 262.370,269.266 262.221 C 268.797 262.072,267.646 261.241,266.707 260.373 C 264.295 258.145,264.012 257.916,262.024 256.587 C 259.982 255.221,258.400 253.735,258.400 253.182 C 258.400 252.972,258.229 252.800,258.019 252.800 C 257.523 252.800,253.600 248.877,253.600 248.381 C 253.600 248.171,253.330 248.000,253.000 248.000 C 252.670 248.000,252.400 247.827,252.400 247.616 C 252.400 247.404,252.078 246.909,251.685 246.516 C 250.579 245.409,248.800 242.900,248.800 242.447 C 248.800 242.223,248.567 241.896,248.281 241.720 C 247.577 241.286,246.198 238.843,245.834 237.388 C 245.671 236.735,245.305 235.930,245.021 235.600 C 244.736 235.270,244.379 234.010,244.228 232.800 C 244.076 231.590,243.657 230.150,243.296 229.600 C 242.304 228.089,242.312 205.631,243.304 204.638 C 243.681 204.262,244.078 202.961,244.232 201.597 C 244.380 200.286,244.751 199.007,245.054 198.755 C 245.358 198.503,245.719 197.595,245.856 196.739 C 245.993 195.883,246.264 195.084,246.459 194.964 C 246.653 194.844,247.086 194.173,247.420 193.473 C 248.633 190.937,249.331 189.794,249.860 189.480 C 250.157 189.304,250.400 188.965,250.400 188.726 C 250.400 188.487,250.805 187.883,251.300 187.383 C 251.795 186.883,252.828 185.737,253.597 184.837 C 254.365 183.937,255.160 183.200,255.363 183.200 C 255.566 183.200,256.018 182.931,256.366 182.601 C 259.121 179.998,260.669 178.800,261.279 178.800 C 261.672 178.800,262.218 178.440,262.493 178.000 C 262.768 177.560,263.285 177.200,263.642 177.200 C 264.000 177.200,264.750 176.840,265.309 176.400 C 265.869 175.960,266.679 175.600,267.109 175.600 C 267.540 175.600,268.350 175.240,268.909 174.800 C 269.469 174.360,270.530 174.000,271.269 174.000 C 272.008 174.000,273.329 173.599,274.206 173.110 C 275.769 172.237,276.074 172.220,290.000 172.210 C 297.810 172.204,302.581 172.147,300.603 172.083 C 298.625 172.019,296.834 171.794,296.623 171.583 C 296.061 171.021,282.496 171.214,277.812 171.851 M306.265 173.191 C 306.521 173.466,307.601 173.754,308.665 173.831 C 310.447 173.960,310.490 173.943,309.200 173.620 C 308.430 173.428,307.350 173.140,306.800 172.980 C 306.011 172.752,305.898 172.797,306.265 173.191 M184.267 175.467 C 183.609 176.124,183.972 296.304,184.633 296.557 C 184.981 296.691,193.846 296.758,204.333 296.706 L 223.400 296.612 204.200 296.406 L 185.000 296.200 184.899 235.904 L 184.797 175.607 204.699 175.500 L 224.600 175.392 204.567 175.296 C 193.548 175.243,184.413 175.320,184.267 175.467 M287.700 199.887 C 288.305 199.978,289.295 199.978,289.900 199.887 C 290.505 199.795,290.010 199.720,288.800 199.720 C 287.590 199.720,287.095 199.795,287.700 199.887 M294.600 199.983 C 296.140 200.129,297.793 200.463,298.274 200.725 C 298.754 200.986,299.562 201.200,300.068 201.200 C 300.838 201.200,300.744 201.069,299.496 200.400 C 298.332 199.776,297.319 199.613,294.901 199.659 L 291.800 199.717 294.600 199.983 M302.600 202.000 C 303.463 202.440,304.410 202.800,304.705 202.800 C 305.000 202.800,305.952 203.160,306.821 203.600 C 307.689 204.040,309.124 204.768,310.009 205.217 C 311.748 206.101,319.290 206.832,319.698 206.157 C 319.818 205.958,318.124 205.775,315.883 205.743 C 312.761 205.699,311.751 205.547,311.402 205.070 C 311.154 204.731,310.422 204.327,309.775 204.173 C 309.129 204.019,308.330 203.670,308.000 203.397 C 307.670 203.124,306.743 202.784,305.940 202.640 C 305.137 202.496,304.260 202.114,303.991 201.789 C 303.722 201.465,302.946 201.200,302.266 201.200 L 301.031 201.200 302.600 202.000 M133.800 230.000 C 132.247 231.029,132.982 231.029,135.000 230.000 C 136.031 229.475,136.300 229.201,135.785 229.203 C 135.353 229.204,134.460 229.563,133.800 230.000 M105.802 231.200 C 105.417 231.830,123.881 232.001,127.164 231.398 C 128.817 231.094,126.564 231.000,117.626 231.000 C 111.190 231.000,105.869 231.090,105.802 231.200 " stroke="none" fill="#98e4ff" fill-rule="evenodd"></path></g></svg>